# xmcd
#
# Track frame offsets:
#	150
#	12821
#	33172
#	52594
#	70353
#	86693
#	101174
#	118151
#	136302
#	148435
#
# Disc length: 2201 seconds
#
# Revision: 1
# Processed by: cddbd v1.5.2PL0 Copyright (c) Steve Scherf et al.
# Submitted via: audiograbber 1.83.01
#
DISCID=8908970a
DTITLE=Average Soul - Do What You Do
DYEAR=2004
DGENRE=Country
TTITLE0=Do What You Do
TTITLE1=Living Without You
TTITLE2=Dying To Be Free
TTITLE3=It's All About You
TTITLE4=Songs That Steered Me Wrong
TTITLE5=Only Habit
TTITLE6=Vrindavan
TTITLE7=Simple Living
TTITLE8=Honky-Tonk Dive
TTITLE9=Next Time Around
EXTD=
EXTT0=
EXTT1=
EXTT2=
EXTT3=
EXTT4=
EXTT5=
EXTT6=
EXTT7=
EXTT8=
EXTT9=
PLAYORDER=
